<?xml version="1.0" standalone="no"?>
<svg viewBox="0 0 200 200" xmlns="http://www.w3.org/2000/svg">
  <path fill="#3B82F6" d="M41.1,-65.3C52.9,-56.4,61.8,-44.4,70.4,-30.7C79,-17,87.2,-1.6,87.3,14C87.4,29.7,79.2,45.7,67.3,57C55.4,68.3,39.7,75,23.4,80C7,85,-9.9,88.3,-25.7,84.9C-41.5,81.5,-56.1,71.4,-64.2,57.9C-72.2,44.5,-73.7,27.6,-74.3,11.7C-75,-4.2,-74.9,-19.2,-71.1,-34.5C-67.2,-49.8,-59.7,-65.5,-47.2,-74.1C-34.8,-82.7,-17.4,-84.2,-1.4,-82C14.7,-79.9,29.3,-74.2,41.1,-65.3Z" transform="translate(100 100)" />
</svg>
